<svg height="512pt" viewBox="0 -17 512 512" width="512pt" xmlns="http://www.w3.org/2000/svg"><path d="m469.332031 0h-426.664062c-23.554688.0273438-42.6406252 19.113281-42.667969 42.667969v221.867187c.0273438 23.550782 19.113281 42.636719 42.667969 42.664063h426.664062c23.554688-.027344 42.640625-19.113281 42.667969-42.664063v-221.867187c-.027344-23.554688-19.113281-42.6406252-42.667969-42.667969zm25.601563 264.535156c-.015625 14.128906-11.46875 25.582032-25.601563 25.597656h-426.664062c-14.132813-.015624-25.585938-11.46875-25.601563-25.597656v-221.867187c.015625-14.132813 11.46875-25.585938 25.601563-25.601563h426.664062c14.132813.015625 25.585938 11.46875 25.601563 25.601563zm0 0"/><path d="m244.652344 471.691406c2.488281 3.851563 6.757812 6.175782 11.34375 6.175782 4.585937 0 8.855468-2.324219 11.347656-6.175782l76.832031-117.4375c2.804688-4.292968 3.027344-9.78125.582031-14.292968-2.359374-4.394532-6.941406-7.144532-11.933593-7.160157h-153.648438c-4.992187.011719-9.578125 2.761719-11.9375 7.160157-2.445312 4.511718-2.222656 10 .582031 14.292968h.003907zm82.003906-121.824218-70.65625 107.992187-70.65625-107.992187zm0 0"/><path d="m358.398438 204.800781h-204.796876c-9.421874.007813-17.058593 7.644531-17.066406 17.066407v34.132812c.007813 9.421875 7.644532 17.058594 17.066406 17.066406h204.796876c9.421874-.007812 17.058593-7.644531 17.066406-17.066406v-34.132812c-.007813-9.421876-7.644532-17.058594-17.066406-17.066407zm-204.796876 51.199219v-34.132812h204.796876l.015624 34.132812zm0 0"/><path d="m102.398438 34.132812h-34.132813c-9.421875.011719-17.054687 7.644532-17.066406 17.066407v34.132812c.011719 9.421875 7.644531 17.058594 17.066406 17.066407h34.132813c9.421874-.007813 17.058593-7.644532 17.066406-17.066407v-34.132812c-.007813-9.421875-7.644532-17.054688-17.066406-17.066407zm-34.132813 51.199219v-34.132812h34.132813l.015624 34.132812zm0 0"/><path d="m153.601562 102.398438h34.132813c9.421875-.007813 17.054687-7.644532 17.066406-17.066407v-34.132812c-.011719-9.421875-7.644531-17.054688-17.066406-17.066407h-34.132813c-9.421874.011719-17.058593 7.644532-17.066406 17.066407v34.132812c.007813 9.421875 7.644532 17.058594 17.066406 17.066407zm0-51.199219h34.132813l.011719 34.132812h-34.144532zm0 0"/><path d="m358.398438 34.132812h-34.132813c-9.421875.011719-17.054687 7.644532-17.066406 17.066407v34.132812c.011719 9.421875 7.644531 17.058594 17.066406 17.066407h34.132813c9.421874-.007813 17.058593-7.644532 17.066406-17.066407v-34.132812c-.007813-9.421875-7.644532-17.054688-17.066406-17.066407zm-34.132813 51.199219v-34.132812h34.132813l.015624 34.132812zm0 0"/><path d="m443.734375 34.132812h-34.132813c-9.421874.011719-17.058593 7.644532-17.066406 17.066407v34.132812c.007813 9.421875 7.644532 17.058594 17.066406 17.066407h34.132813c9.421875-.007813 17.054687-7.644532 17.066406-17.066407v-34.132812c-.011719-9.421875-7.644531-17.054688-17.066406-17.066407zm-34.132813 51.199219v-34.132812h34.132813l.011719 34.132812zm0 0"/><path d="m238.933594 102.398438h34.132812c9.421875-.007813 17.058594-7.644532 17.066406-17.066407v-34.132812c-.007812-9.421875-7.644531-17.054688-17.066406-17.066407h-34.132812c-9.421875.011719-17.058594 7.644532-17.066406 17.066407v34.132812c.007812 9.421875 7.644531 17.058594 17.066406 17.066407zm0-51.199219h34.132812l.011719 34.132812h-34.144531zm0 0"/><path d="m102.398438 119.464844h-34.132813c-9.421875.011718-17.054687 7.648437-17.066406 17.070312v34.132813c.011719 9.421875 7.644531 17.054687 17.066406 17.066406h34.132813c9.421874-.011719 17.058593-7.644531 17.066406-17.066406v-34.132813c-.007813-9.421875-7.644532-17.058594-17.066406-17.070312zm-34.132813 51.203125v-34.132813h34.132813l.015624 34.132813zm0 0"/><path d="m153.601562 187.734375h34.132813c9.421875-.011719 17.054687-7.644531 17.066406-17.066406v-34.132813c-.011719-9.421875-7.644531-17.058594-17.066406-17.070312h-34.132813c-9.421874.011718-17.058593 7.648437-17.066406 17.070312v34.132813c.007813 9.421875 7.644532 17.054687 17.066406 17.066406zm0-51.199219h34.132813l.011719 34.132813h-34.144532zm0 0"/><path d="m358.398438 119.464844h-34.132813c-9.421875.011718-17.054687 7.648437-17.066406 17.070312v34.132813c.011719 9.421875 7.644531 17.054687 17.066406 17.066406h34.132813c9.421874-.011719 17.058593-7.644531 17.066406-17.066406v-34.132813c-.007813-9.421875-7.644532-17.058594-17.066406-17.070312zm-34.132813 51.203125v-34.132813h34.132813l.015624 34.132813zm0 0"/><path d="m443.734375 119.464844h-34.132813c-9.421874.011718-17.058593 7.648437-17.066406 17.070312v34.132813c.007813 9.421875 7.644532 17.054687 17.066406 17.066406h34.132813c9.421875-.011719 17.054687-7.644531 17.066406-17.066406v-34.132813c-.011719-9.421875-7.644531-17.058594-17.066406-17.070312zm-34.132813 51.203125v-34.132813h34.132813l.011719 34.132813zm0 0"/><path d="m238.933594 187.734375h34.132812c9.421875-.011719 17.058594-7.644531 17.066406-17.066406v-34.132813c-.007812-9.421875-7.644531-17.058594-17.066406-17.070312h-34.132812c-9.421875.011718-17.058594 7.648437-17.066406 17.070312v34.132813c.007812 9.421875 7.644531 17.054687 17.066406 17.066406zm0-51.199219h34.132812l.011719 34.132813h-34.144531zm0 0"/></svg>